<svg xmlns="http://www.w3.org/2000/svg" viewBox="0 0 543.22 91.83"><defs><style>.cls-1{fill:#e6e6e6;}.cls-2{fill:#2f343d;}.cls-3{fill:none;stroke:#2f343d;stroke-width:4.18px;}.cls-3,.cls-4{stroke-miterlimit:10;}.cls-4{fill:#fff;stroke:#fff;stroke-width:0.5px;}.cls-5{fill:#ccc;}</style></defs><g id="Layer_2" data-name="Layer 2"><g id="Layer_5" data-name="Layer 5"><path id="Shape" class="cls-1" d="M32.48,78.39,45.91,91.83,59.35,78.39h19v-19L91.83,45.91,78.39,32.48v-19h-19L45.91,0,32.48,13.44h-19v19L0,45.91,13.44,59.35v19Z"/><path id="path11" class="cls-2" d="M47.38,31.53l-.05.21L41.1,59.2l-.21,1h3.87l.06-.21L51,32.58l.21-1ZM37.5,35.3l-.53.37L25.73,44.4,25,45v1.78l.73.58L37,56.06l.53.37V51.72l-7.59-5.81L37.5,40Zm16.83,0V40l7.59,5.9-7.59,5.91v4.71l.53-.37L66.1,47.43l.73-.57V45.08l-.73-.58L54.8,35.72Z"/><circle id="Oval" class="cls-3" cx="45.91" cy="45.91" r="30.7"/><path class="cls-4" d="M137,48.65a11.38,11.38,0,0,1-3.13,8.42,12.16,12.16,0,0,1-9.27,3.74,13,13,0,0,1-13.11-13.18,13,13,0,0,1,13.11-13.18,13.93,13.93,0,0,1,5.25,1,10.46,10.46,0,0,1,4.05,2.78l-2.32,2.33a7.86,7.86,0,0,0-3-2.21,10.07,10.07,0,0,0-4-.79,9.48,9.48,0,0,0-7,2.86,9.91,9.91,0,0,0-2.82,7.22,9.91,9.91,0,0,0,2.82,7.22,9.48,9.48,0,0,0,7,2.86,9.39,9.39,0,0,0,6.27-2.12,8.41,8.41,0,0,0,2.89-5.81h-9.16v-3h12.23A11.55,11.55,0,0,1,137,48.65Z"/><path class="cls-4" d="M139.18,51.61a9.18,9.18,0,0,1,2.5-6.59,8.54,8.54,0,0,1,6.38-2.61A8.43,8.43,0,0,1,154.41,45a9.08,9.08,0,0,1,2.53,6.59,9,9,0,0,1-2.53,6.59,8.43,8.43,0,0,1-6.35,2.61,8.54,8.54,0,0,1-6.38-2.61A9.16,9.16,0,0,1,139.18,51.61Zm3.25,0a6.32,6.32,0,0,0,1.62,4.51,5.52,5.52,0,0,0,8,0,6.32,6.32,0,0,0,1.62-4.51,6.27,6.27,0,0,0-1.62-4.47,5.44,5.44,0,0,0-8,0A6.27,6.27,0,0,0,142.43,51.61Z"/><path class="cls-4" d="M158.92,51.61a9.14,9.14,0,0,1,2.5-6.59,8.51,8.51,0,0,1,6.38-2.61A8.42,8.42,0,0,1,174.14,45a9.08,9.08,0,0,1,2.53,6.59,9,9,0,0,1-2.53,6.59,8.42,8.42,0,0,1-6.34,2.61,8.51,8.51,0,0,1-6.38-2.61A9.12,9.12,0,0,1,158.92,51.61Zm3.24,0a6.32,6.32,0,0,0,1.62,4.51,5.52,5.52,0,0,0,8,0,6.32,6.32,0,0,0,1.62-4.51,6.27,6.27,0,0,0-1.62-4.47,5.44,5.44,0,0,0-8,0A6.27,6.27,0,0,0,162.16,51.61Z"/><path class="cls-4" d="M187.28,68.42a9.86,9.86,0,0,1-2.71-.37,8.67,8.67,0,0,1-2.31-1,7.56,7.56,0,0,1-1.78-1.59,6.79,6.79,0,0,1-1.13-2l3.07-1.27a4.83,4.83,0,0,0,1.83,2.43,5.15,5.15,0,0,0,3,.92,5.34,5.34,0,0,0,4.12-1.59,6.12,6.12,0,0,0,1.48-4.37V57.85h-.14A6.36,6.36,0,0,1,190.26,60a7.43,7.43,0,0,1-3.4.8A7.62,7.62,0,0,1,181,58.16a10.13,10.13,0,0,1,0-13.07,7.61,7.61,0,0,1,5.82-2.68,7.43,7.43,0,0,1,3.4.8,6.44,6.44,0,0,1,2.48,2.16h.14V43H196V59.5A8.77,8.77,0,0,1,193.62,66,8.57,8.57,0,0,1,187.28,68.42Zm.11-10.57a5,5,0,0,0,3.91-1.73,6.43,6.43,0,0,0,1.58-4.51,6.44,6.44,0,0,0-1.58-4.47,5,5,0,0,0-3.91-1.77,5.07,5.07,0,0,0-3.92,1.77,7.13,7.13,0,0,0,0,9A5.09,5.09,0,0,0,187.39,57.85Z"/><path class="cls-4" d="M203.17,35V60.24h-3.24V35Z"/><path class="cls-4" d="M214.69,60.81a8.27,8.27,0,0,1-6.27-2.61A9.22,9.22,0,0,1,206,51.61,9.36,9.36,0,0,1,208.35,45a7.94,7.94,0,0,1,6.13-2.63,7.86,7.86,0,0,1,6.11,2.49,9.89,9.89,0,0,1,2.28,7l0,.35H209.27A5.62,5.62,0,0,0,211,56.3a5.46,5.46,0,0,0,8.74-1.55l2.89,1.41a8.63,8.63,0,0,1-3.23,3.41A8.84,8.84,0,0,1,214.69,60.81Zm-5.18-11.28h9.91a4.34,4.34,0,0,0-1.47-3,5.15,5.15,0,0,0-3.54-1.18,4.7,4.7,0,0,0-3.15,1.13A5.43,5.43,0,0,0,209.51,49.53Z"/><path class="cls-5" d="M256.41,53.51A6.54,6.54,0,0,1,254,58.83a9.26,9.26,0,0,1-6,2A8.84,8.84,0,0,1,242.46,59a9.37,9.37,0,0,1-3.31-5l3.1-1.27a7.74,7.74,0,0,0,.88,2,6.28,6.28,0,0,0,1.32,1.56,5.89,5.89,0,0,0,1.67,1,5.27,5.27,0,0,0,1.94.37,5.54,5.54,0,0,0,3.63-1.15,3.73,3.73,0,0,0,1.41-3.05,3.66,3.66,0,0,0-1.16-2.71,11,11,0,0,0-4.09-2.11c-2-.73-3.28-1.22-3.77-1.48-2.68-1.37-4-3.37-4-6a6.17,6.17,0,0,1,2.22-4.76,8.14,8.14,0,0,1,5.53-2,8.49,8.49,0,0,1,5,1.48,6.9,6.9,0,0,1,2.82,3.63l-3,1.27a4.48,4.48,0,0,0-1.68-2.34,5.39,5.39,0,0,0-6.25.12,3.08,3.08,0,0,0-1.31,2.57,3,3,0,0,0,1,2.26,17.72,17.72,0,0,0,4.89,2.25,12.46,12.46,0,0,1,5.48,3.19A6.78,6.78,0,0,1,256.41,53.51Z"/><path class="cls-5" d="M274.38,60.24h-3.1V57.85h-.14A5.75,5.75,0,0,1,268.87,60a6.49,6.49,0,0,1-3.19.85A6.37,6.37,0,0,1,260.8,59a7.24,7.24,0,0,1-1.71-5.16V43h3.24V53.62q.1,4.23,4.26,4.23a4,4,0,0,0,3.25-1.57,5.74,5.74,0,0,0,1.3-3.75V43h3.24Z"/><path class="cls-5" d="M281.57,60.24h-3.24V43h3.1v2.39h.14a5.75,5.75,0,0,1,2.27-2.11,6.31,6.31,0,0,1,6.4,0,5.16,5.16,0,0,1,2.11,2.43,6.74,6.74,0,0,1,6-3.32,5.84,5.84,0,0,1,4.61,1.84,7.61,7.61,0,0,1,1.62,5.21V60.24H301.3V50a5.53,5.53,0,0,0-.88-3.51,3.61,3.61,0,0,0-3-1.08A3.89,3.89,0,0,0,294.32,47a5.82,5.82,0,0,0-1.26,3.73v9.55h-3.25V50a5.53,5.53,0,0,0-.88-3.51,3.6,3.6,0,0,0-3-1.08A3.86,3.86,0,0,0,282.84,47a5.77,5.77,0,0,0-1.27,3.73Z"/><path class="cls-5" d="M311.59,60.24h-3.24V43h3.1v2.39h.14a5.75,5.75,0,0,1,2.27-2.11,6.31,6.31,0,0,1,6.4,0,5.1,5.1,0,0,1,2.11,2.43,6.74,6.74,0,0,1,6-3.32,5.84,5.84,0,0,1,4.61,1.84,7.61,7.61,0,0,1,1.62,5.21V60.24h-3.24V50a5.53,5.53,0,0,0-.88-3.51,3.61,3.61,0,0,0-3-1.08A3.87,3.87,0,0,0,324.34,47a5.82,5.82,0,0,0-1.26,3.73v9.55h-3.25V50a5.53,5.53,0,0,0-.88-3.51,3.6,3.6,0,0,0-3-1.08A3.86,3.86,0,0,0,312.86,47a5.77,5.77,0,0,0-1.27,3.73Z"/><path class="cls-5" d="M346.12,60.81a8.24,8.24,0,0,1-6.27-2.61,9.18,9.18,0,0,1-2.47-6.59,9.37,9.37,0,0,1,2.4-6.57A8.6,8.6,0,0,1,352,44.9c1.52,1.65,2.27,4,2.27,7l0,.35H340.69a5.66,5.66,0,0,0,1.69,4.09,5.46,5.46,0,0,0,3.88,1.55,5.4,5.4,0,0,0,4.86-3.1L354,56.16a8.6,8.6,0,0,1-3.22,3.41A8.86,8.86,0,0,1,346.12,60.81Zm-5.18-11.28h9.9a4.29,4.29,0,0,0-1.46-3,5.15,5.15,0,0,0-3.54-1.18,4.75,4.75,0,0,0-3.16,1.13A5.36,5.36,0,0,0,340.94,49.53Z"/><path class="cls-5" d="M360.5,60.24h-3.25V43h3.1V45.8h.15a4.65,4.65,0,0,1,2-2.35,5.68,5.68,0,0,1,3-1,6.13,6.13,0,0,1,2.4.43l-1,3.13a5.49,5.49,0,0,0-1.9-.24,4.2,4.2,0,0,0-3.19,1.48,4.94,4.94,0,0,0-1.35,3.45Z"/><path class="cls-5" d="M376.81,51.61a9.14,9.14,0,0,1,2.5-6.59,8.53,8.53,0,0,1,6.38-2.61A8.41,8.41,0,0,1,392,45a9.08,9.08,0,0,1,2.54,6.59A9,9,0,0,1,392,58.2a8.41,8.41,0,0,1-6.34,2.61,8.53,8.53,0,0,1-6.38-2.61A9.12,9.12,0,0,1,376.81,51.61Zm3.24,0a6.32,6.32,0,0,0,1.62,4.51,5.52,5.52,0,0,0,8,0,7,7,0,0,0,0-9,5.44,5.44,0,0,0-8,0A6.27,6.27,0,0,0,380.05,51.61Z"/><path class="cls-5" d="M405,34.73a6.14,6.14,0,0,1,2.89.6L407,38.19a4.09,4.09,0,0,0-1.9-.43,2.55,2.55,0,0,0-2,.83,3.16,3.16,0,0,0-.76,2.2V43h4.51v3h-4.51v14.3h-3.24V45.94h-3.24V43h3.24v-2.5a5.54,5.54,0,0,1,1.64-4.16A5.8,5.8,0,0,1,405,34.73Z"/><path class="cls-5" d="M429.45,60.81a12.83,12.83,0,0,1-13.11-13.18,12.71,12.71,0,0,1,3.74-9.37,12.57,12.57,0,0,1,9.37-3.81,11.7,11.7,0,0,1,9.27,4.12l-2.33,2.26a8.6,8.6,0,0,0-6.94-3.28,9.51,9.51,0,0,0-7,2.82,9.82,9.82,0,0,0-2.79,7.26,9.82,9.82,0,0,0,2.79,7.26,9.51,9.51,0,0,0,7,2.82A9.91,9.91,0,0,0,437.1,54l2.36,2.29a12.33,12.33,0,0,1-4.41,3.33A13.52,13.52,0,0,1,429.45,60.81Z"/><path class="cls-5" d="M441,51.61a9.14,9.14,0,0,1,2.5-6.59,8.53,8.53,0,0,1,6.38-2.61A8.41,8.41,0,0,1,456.23,45a9.08,9.08,0,0,1,2.54,6.59,9,9,0,0,1-2.54,6.59,8.41,8.41,0,0,1-6.34,2.61,8.53,8.53,0,0,1-6.38-2.61A9.12,9.12,0,0,1,441,51.61Zm3.24,0a6.32,6.32,0,0,0,1.62,4.51,5.52,5.52,0,0,0,8,0,6.32,6.32,0,0,0,1.62-4.51,6.27,6.27,0,0,0-1.62-4.47,5.44,5.44,0,0,0-8,0A6.27,6.27,0,0,0,444.25,51.61Z"/><path class="cls-5" d="M469,60.81a7.59,7.59,0,0,1-5.82-2.68,10.09,10.09,0,0,1,0-13A7.63,7.63,0,0,1,469,42.41a7.45,7.45,0,0,1,3.47.81,6.17,6.17,0,0,1,2.41,2.15H475L474.83,43V35h3.24V60.24H475V57.85h-.14A6.09,6.09,0,0,1,472.42,60,7.45,7.45,0,0,1,469,60.81Zm.53-3a5,5,0,0,0,3.91-1.73A6.38,6.38,0,0,0,475,51.61a6.4,6.4,0,0,0-1.58-4.47,5.2,5.2,0,0,0-7.82,0,7.09,7.09,0,0,0,0,9A5.06,5.06,0,0,0,469.48,57.85Z"/><path class="cls-5" d="M489.6,60.81a8.28,8.28,0,0,1-6.28-2.61,9.22,9.22,0,0,1-2.46-6.59A9.41,9.41,0,0,1,483.25,45a8.61,8.61,0,0,1,12.25-.14,9.94,9.94,0,0,1,2.27,7l0,.35H484.17a5.66,5.66,0,0,0,1.69,4.09,5.46,5.46,0,0,0,8.74-1.55l2.89,1.41a8.63,8.63,0,0,1-3.23,3.41A8.83,8.83,0,0,1,489.6,60.81Zm-5.18-11.28h9.9a4.33,4.33,0,0,0-1.46-3,5.19,5.19,0,0,0-3.55-1.18,4.7,4.7,0,0,0-3.15,1.13A5.36,5.36,0,0,0,484.42,49.53Z"/><path class="cls-5" d="M509.71,42.7l-1.51-1L510,39a2.11,2.11,0,0,1-1.25-.74,2.15,2.15,0,0,1-.51-1.44,2.29,2.29,0,0,1,.7-1.71,2.34,2.34,0,0,1,1.69-.69,2.29,2.29,0,0,1,1.71.69,2.32,2.32,0,0,1,.69,1.71,4.14,4.14,0,0,1-.74,2.15Z"/><path class="cls-5" d="M531.46,57.14v3.1H516.09V57l6.24-6.31a55.67,55.67,0,0,0,4.33-4.8,5.56,5.56,0,0,0,1.2-3.37,3.54,3.54,0,0,0-1.23-2.71,4.54,4.54,0,0,0-3.17-1.13,4.35,4.35,0,0,0-2.86,1,4.43,4.43,0,0,0-1.55,2.39l-3-1.2a7.74,7.74,0,0,1,7.44-5.28,7.77,7.77,0,0,1,5.46,2,6.45,6.45,0,0,1,2.18,4.93q0,3.49-3.84,7.54l-7,7.08Z"/><path class="cls-5" d="M543.22,36.14v24.1H540V40.16l-4.68,2-1.24-2.75,7.08-3.31Z"/></g></g></svg>