<svg xmlns="http://www.w3.org/2000/svg" viewBox="0 0 41.7 40.67"><defs><style>.cls-1{fill:#fff;fill-rule:evenodd;}</style></defs><g id="Layer_2" data-name="Layer 2"><g id="Layer_5" data-name="Layer 5"><path class="cls-1" d="M20.85,0a20.86,20.86,0,0,0-6.59,40.64c1,.19,1.42-.45,1.42-1s0-1.8,0-3.54c-5.8,1.26-7-2.8-7-2.8a5.53,5.53,0,0,0-2.31-3.05C4.42,29,6.46,29,6.46,29a4.38,4.38,0,0,1,3.19,2.15c1.86,3.19,4.88,2.27,6.07,1.74a4.44,4.44,0,0,1,1.33-2.79c-4.63-.53-9.5-2.32-9.5-10.31a8.06,8.06,0,0,1,2.14-5.59A7.51,7.51,0,0,1,9.9,8.65s1.75-.56,5.73,2.14a19.54,19.54,0,0,1,10.44,0c4-2.7,5.73-2.14,5.73-2.14A7.51,7.51,0,0,1,32,14.17a8,8,0,0,1,2.14,5.59c0,8-4.87,9.78-9.52,10.29a5,5,0,0,1,1.42,3.86c0,2.79,0,5,0,5.72s.38,1.21,1.44,1A20.86,20.86,0,0,0,20.85,0Z"/></g></g></svg>