<svg xmlns="http://www.w3.org/2000/svg" viewBox="0 0 247.88 125.9"><defs><style>.cls-1{fill:#f5455c;}</style></defs><g id="Layer_2" data-name="Layer 2"><g id="Layer_5" data-name="Layer 5"><path class="cls-1" d="M186.31,61.66h28.78a2,2,0,0,1,2,2V92.48a0,0,0,0,1,0,0H188.35a2,2,0,0,1-2-2V61.66A0,0,0,0,1,186.31,61.66Z"/><path class="cls-1" d="M155.5,30.84h30.81a0,0,0,0,1,0,0V61.65a0,0,0,0,1,0,0H157.53a2,2,0,0,1-2-2V30.84A0,0,0,0,1,155.5,30.84Z"/><rect class="cls-1" x="186.31" width="30.81" height="30.81"/><path class="cls-1" d="M217.07,92.5h28.78a2,2,0,0,1,2,2v28.78a0,0,0,0,1,0,0H219.11a2,2,0,0,1-2-2V92.5A0,0,0,0,1,217.07,92.5Z"/><path class="cls-1" d="M93.66,61.66h28.78a2,2,0,0,1,2,2V92.47a0,0,0,0,1,0,0H95.69a2,2,0,0,1-2-2V61.66A0,0,0,0,1,93.66,61.66Z"/><path class="cls-1" d="M62.84,30.84H93.65a0,0,0,0,1,0,0V61.65a0,0,0,0,1,0,0H64.88a2,2,0,0,1-2-2V30.84a0,0,0,0,1,0,0Z"/><rect class="cls-1" x="93.66" width="30.81" height="30.81"/><path class="cls-1" d="M124.41,92.49h28.78a2,2,0,0,1,2,2v28.78a0,0,0,0,1,0,0H126.45a2,2,0,0,1-2-2V92.49A0,0,0,0,1,124.41,92.49Z"/><path class="cls-1" d="M30.81,95.08H60.09a1.53,1.53,0,0,1,1.53,1.53V125.9a0,0,0,0,1,0,0H32.42a1.61,1.61,0,0,1-1.61-1.61V95.08A0,0,0,0,1,30.81,95.08Z"/><path class="cls-1" d="M0,0H29.28a1.53,1.53,0,0,1,1.53,1.53V30.81a0,0,0,0,1,0,0H1.61A1.61,1.61,0,0,1,0,29.2V0A0,0,0,0,1,0,0Z"/></g></g></svg>