<svg xmlns="http://www.w3.org/2000/svg" viewBox="0 0 546.43 91.83"><defs><style>.cls-1{fill:#e6e6e6;}.cls-2{fill:#2f343d;}.cls-3{fill:none;stroke:#2f343d;stroke-width:4.18px;}.cls-3,.cls-5,.cls-6{stroke-miterlimit:10;}.cls-4{font-size:35.24px;fill:#fff;font-family:ProductSans-Regular, Product Sans;}.cls-5,.cls-6{stroke:#fff;stroke-width:0.5px;}.cls-5{letter-spacing:0em;}.cls-7{letter-spacing:-0.03em;}.cls-10,.cls-11,.cls-12,.cls-13,.cls-14,.cls-15,.cls-8,.cls-9{fill:#ccc;}.cls-8{letter-spacing:-0.01em;}.cls-9{letter-spacing:0em;}.cls-10{letter-spacing:-0.01em;}.cls-11{letter-spacing:0em;}.cls-12{letter-spacing:-0.02em;}.cls-14{letter-spacing:0em;}.cls-15{letter-spacing:-0.01em;}</style></defs><g id="Layer_2" data-name="Layer 2"><g id="Layer_5" data-name="Layer 5"><path id="Shape" class="cls-1" d="M32.48,78.39,45.91,91.83,59.35,78.39h19v-19L91.83,45.91,78.39,32.48v-19h-19L45.91,0,32.48,13.44h-19v19L0,45.91,13.44,59.35v19Z"/><path id="path11" class="cls-2" d="M47.38,31.53l-.05.21L41.1,59.2l-.21,1h3.87l.06-.21L51,32.58l.21-1ZM37.5,35.3l-.53.37L25.73,44.4,25,45v1.78l.73.58L37,56.06l.53.37V51.72l-7.59-5.81L37.5,40Zm16.83,0V40l7.59,5.9-7.59,5.91v4.71l.53-.37L66.1,47.43l.73-.57V45.08l-.73-.58L54.8,35.72Z"/><circle id="Oval" class="cls-3" cx="45.91" cy="45.91" r="30.7"/><text class="cls-4" transform="translate(110.15 60.24)"><tspan class="cls-5">G</tspan><tspan class="cls-6" x="28.05" y="0">oog</tspan><tspan class="cls-5" x="87.81" y="0">l</tspan><tspan class="cls-6" x="94.82" y="0">e</tspan><tspan x="113.71" y="0"> </tspan><tspan class="cls-7" x="121.46" y="0"> </tspan><tspan class="cls-8" x="128.15" y="0">S</tspan><tspan class="cls-9" x="147.11" y="0">ummer </tspan><tspan class="cls-10" x="265.67" y="0">o</tspan><tspan class="cls-11" x="284.88" y="0">f</tspan><tspan class="cls-12" x="297.84" y="0" xml:space="preserve"> C</tspan><tspan class="cls-13" x="329.87" y="0">o</tspan><tspan class="cls-14" x="349.6" y="0">d</tspan><tspan class="cls-13" x="369.72" y="0">e ’</tspan><tspan class="cls-15" x="404.54" y="0">2</tspan><tspan class="cls-13" x="422.5" y="0">1</tspan></text></g></g></svg>