<svg xmlns="http://www.w3.org/2000/svg" viewBox="0 0 247.88 125.9"><defs><style>.cls-1{fill:#f5455c;}</style></defs><g id="Layer_2" data-name="Layer 2"><g id="Layer_2-2" data-name="Layer 2"><path class="cls-1" d="M30.76,33.42H59.53a2,2,0,0,1,2,2V64.23a0,0,0,0,1,0,0H32.8a2,2,0,0,1-2-2V33.42A0,0,0,0,1,30.76,33.42Z" transform="translate(92.33 97.65) rotate(180)"/><path class="cls-1" d="M61.57,64.24H92.38a0,0,0,0,1,0,0V95.05a0,0,0,0,1,0,0H63.61a2,2,0,0,1-2-2V64.24A0,0,0,0,1,61.57,64.24Z" transform="translate(153.96 159.3) rotate(180)"/><rect class="cls-1" x="30.76" y="95.08" width="30.81" height="30.81" transform="translate(92.33 220.98) rotate(180)"/><path class="cls-1" d="M0,2.59H28.78a2,2,0,0,1,2,2V33.4a0,0,0,0,1,0,0H2a2,2,0,0,1-2-2V2.59a0,0,0,0,1,0,0Z" transform="translate(30.81 35.99) rotate(180)"/><path class="cls-1" d="M123.41,33.42h28.78a2,2,0,0,1,2,2V64.23a0,0,0,0,1,0,0H125.45a2,2,0,0,1-2-2V33.42a0,0,0,0,1,0,0Z" transform="translate(277.64 97.65) rotate(180)"/><path class="cls-1" d="M154.23,64.24H185a0,0,0,0,1,0,0V95.06a0,0,0,0,1,0,0H156.26a2,2,0,0,1-2-2V64.24A0,0,0,0,1,154.23,64.24Z" transform="translate(339.27 159.3) rotate(180)"/><rect class="cls-1" x="123.41" y="95.08" width="30.81" height="30.81" transform="translate(277.64 220.98) rotate(180)"/><path class="cls-1" d="M92.66,2.59h28.78a2,2,0,0,1,2,2V33.4a0,0,0,0,1,0,0H94.69a2,2,0,0,1-2-2V2.59A0,0,0,0,1,92.66,2.59Z" transform="translate(216.12 35.99) rotate(180)"/><path class="cls-1" d="M186.26,0h29.28a1.53,1.53,0,0,1,1.53,1.53V30.81a0,0,0,0,1,0,0h-29.2a1.61,1.61,0,0,1-1.61-1.61V0A0,0,0,0,1,186.26,0Z" transform="translate(403.33 30.81) rotate(180)"/><path class="cls-1" d="M217.07,95.08h29.28a1.53,1.53,0,0,1,1.53,1.53v29.28a0,0,0,0,1,0,0h-29.2a1.61,1.61,0,0,1-1.61-1.61V95.08a0,0,0,0,1,0,0Z" transform="translate(464.95 220.98) rotate(180)"/></g></g></svg>