<svg xmlns="http://www.w3.org/2000/svg" viewBox="0 0 369.65 62.15"><defs><style>.cls-1{fill:#f5455c}</style></defs><g id="Layer_2" data-name="Layer 2"><g id="Layer_5" data-name="Layer 5"><path d="M356.29,7.32h6.94v9.56h6.42v6.29h-6.42V40.25h6.07v6.18a16.06,16.06,0,0,1-3.58.35c-6.31,0-9.44-3.29-9.44-9.87V7.32Z" class="cls-1"/><path d="M343.18,21.09V16.88h6.94V46h-6.94V41.75c-1,2.83-4.52,4.85-9.32,4.85a14,14,0,0,1-10.41-4.33,15.13,15.13,0,0,1-4.17-10.85,14.91,14.91,0,0,1,4.17-10.79,13.87,13.87,0,0,1,10.41-4.39C338.66,16.25,342.19,18.27,343.18,21.09Zm-2.09,16.68a8.45,8.45,0,0,0,2.61-6.34,8.46,8.46,0,0,0-2.61-6.35,8.63,8.63,0,0,0-6.3-2.54,8.35,8.35,0,0,0-6.19,2.54,8.77,8.77,0,0,0-2.43,6.35,8.76,8.76,0,0,0,2.43,6.34,8.39,8.39,0,0,0,6.19,2.54A8.65,8.65,0,0,0,341.09,37.77Z" class="cls-1"/><path d="M86.26,46V16.88h6.89v4.33c1.39-3.06,4.57-4.91,8.68-4.91a10.39,10.39,0,0,1,2.08.18v6.69a15.12,15.12,0,0,0-2.89-.29c-4.81,0-7.87,3-7.87,7.79V46H86.26Z" class="cls-1"/><path d="M105.64,31.42a14.67,14.67,0,0,1,4.63-11,16.53,16.53,0,0,1,22.57,0,14.67,14.67,0,0,1,4.62,11,14.7,14.7,0,0,1-4.62,11,16.56,16.56,0,0,1-22.57,0A14.71,14.71,0,0,1,105.64,31.42ZM128,37.94a9,9,0,0,0,2.6-6.52A8.75,8.75,0,0,0,128,25a9.17,9.17,0,0,0-12.9,0,8.91,8.91,0,0,0-2.55,6.46,9.13,9.13,0,0,0,2.55,6.52,9.3,9.3,0,0,0,12.9,0Z" class="cls-1"/><path d="M166.33,18.9v6.92a12.6,12.6,0,0,0-9-3.57,9.35,9.35,0,0,0-6.77,2.59,8.72,8.72,0,0,0-2.66,6.52,8.69,8.69,0,0,0,2.66,6.52,9.32,9.32,0,0,0,6.77,2.6,12.38,12.38,0,0,0,9-3.58v6.93A14.45,14.45,0,0,1,157,46.77a15.68,15.68,0,0,1-11.34-4.39,14.58,14.58,0,0,1-4.57-11,14.55,14.55,0,0,1,4.57-11A15.68,15.68,0,0,1,157,16,14.72,14.72,0,0,1,166.33,18.9Z" class="cls-1"/><path d="M171.48,46V7.32h6.89v22l9.83-12.41h7.87L185,30.79,197,46H188.9L178.37,32.52V46Z" class="cls-1"/><path d="M197.17,31.42c0-4.56,1.39-8.25,4.22-11a14.76,14.76,0,0,1,10.88-4.21,13.23,13.23,0,0,1,10.24,4.21,14.36,14.36,0,0,1,4,10.33c0,.86-.06,1.73-.12,2.48H204.05c.23,4.62,3.65,7.56,8.8,7.56,4.57,0,8-1.1,10.47-3.35v6.47a18.5,18.5,0,0,1-10.76,2.94,15.59,15.59,0,0,1-11.17-4.1c-2.83-2.77-4.22-6.46-4.22-11v-.29Zm22.27-3.11a5.67,5.67,0,0,0-2.08-4.39,7.48,7.48,0,0,0-5.09-1.85,8.82,8.82,0,0,0-5.55,1.85,5.84,5.84,0,0,0-2.49,4.39Z" class="cls-1"/><path d="M231.73,7.32h7v9.56h6.42v6.29h-6.42V40.25h6.07v6.18a16.09,16.09,0,0,1-3.59.35c-6.3,0-9.43-3.29-9.43-9.87V7.32Z" class="cls-1"/><path d="M252,38.33a4.14,4.14,0,1,0,4.17,4.14A4.16,4.16,0,0,0,252,38.33Z" class="cls-1"/><path d="M283.36,18.9v6.92a12.64,12.64,0,0,0-9-3.57,9.35,9.35,0,0,0-6.77,2.59A8.72,8.72,0,0,0,265,31.36a8.69,8.69,0,0,0,2.66,6.52,9.33,9.33,0,0,0,6.77,2.6,12.41,12.41,0,0,0,9-3.58v6.93A14.48,14.48,0,0,1,274,46.77a15.64,15.64,0,0,1-11.33-4.39,14.56,14.56,0,0,1-4.58-11,14.56,14.56,0,0,1,4.58-11A15.64,15.64,0,0,1,274,16,14.77,14.77,0,0,1,283.36,18.9Z" class="cls-1"/><path d="M288.51,46V7.32h6.88v13.6c1.33-2.77,4.51-4.62,8.5-4.62,6.71,0,10.65,4.45,10.65,11.66V46h-6.89v-17c0-4-2.14-6.46-5.84-6.46s-6.42,2.77-6.42,6.75V46Z" class="cls-1"/><path d="M66.42,20.57a26.54,26.54,0,0,0-7.85-7.72C52.14,8.62,43.7,6.29,34.8,6.29a48.6,48.6,0,0,0-8.75.78,28.74,28.74,0,0,0-6-4.44A23.78,23.78,0,0,0,1.16,1.39,1.73,1.73,0,0,0,.49,4.22C3,6.85,7.25,12.05,6.21,16.78A20.33,20.33,0,0,0,0,31,20.34,20.34,0,0,0,6.21,45.36C7.24,50.09,3,55.29.49,57.93a1.73,1.73,0,0,0,.67,2.83A23.78,23.78,0,0,0,20,59.52a28.77,28.77,0,0,0,6-4.44,49.69,49.69,0,0,0,8.75.77c8.91,0,17.35-2.32,23.77-6.55a26.58,26.58,0,0,0,7.86-7.72,19,19,0,0,0,0-21Zm-32,29.18a41.88,41.88,0,0,1-10.86-1.4l-2.45,2.36a22.15,22.15,0,0,1-4.51,3.34,17.54,17.54,0,0,1-6.38,1.81l.35-.65q3.67-6.76,2-12.15c-4-3.15-6.41-7.18-6.41-11.58,0-10.08,12.66-18.26,28.28-18.26S62.72,21.4,62.72,31.48,50.06,49.75,34.43,49.75Z" class="cls-1"/><path d="M20.9,27.28a4.15,4.15,0,1,0,4.17,4.15A4.16,4.16,0,0,0,20.9,27.28Z" class="cls-1"/><path d="M34.32,27.28a4.15,4.15,0,1,0,4.17,4.15A4.16,4.16,0,0,0,34.32,27.28Z" class="cls-1"/><path d="M47.74,27.28a4.15,4.15,0,1,0,4.17,4.15A4.16,4.16,0,0,0,47.74,27.28Z" class="cls-1"/></g></g></svg>