<svg xmlns="http://www.w3.org/2000/svg" viewBox="0 0 69.59 62.15"><defs><style>.cls-1{fill:#f5455c;}</style></defs><g id="Layer_2" data-name="Layer 2"><g id="Layer_5" data-name="Layer 5"><path class="cls-1" d="M66.42,20.57a26.54,26.54,0,0,0-7.85-7.72C52.14,8.62,43.7,6.29,34.8,6.29a48.6,48.6,0,0,0-8.75.78,28.74,28.74,0,0,0-6-4.44A23.78,23.78,0,0,0,1.16,1.39,1.73,1.73,0,0,0,.49,4.22C3,6.85,7.25,12.05,6.21,16.78A20.33,20.33,0,0,0,0,31,20.34,20.34,0,0,0,6.21,45.36C7.24,50.09,3,55.29.49,57.93a1.73,1.73,0,0,0,.67,2.83A23.78,23.78,0,0,0,20,59.52a28.77,28.77,0,0,0,6-4.44,49.69,49.69,0,0,0,8.75.77c8.91,0,17.35-2.32,23.77-6.55a26.58,26.58,0,0,0,7.86-7.72,19,19,0,0,0,0-21Zm-32,29.18a41.88,41.88,0,0,1-10.86-1.4l-2.45,2.36a22.15,22.15,0,0,1-4.51,3.34,17.54,17.54,0,0,1-6.38,1.81l.35-.65q3.67-6.76,2-12.15c-4-3.15-6.41-7.18-6.41-11.58,0-10.08,12.66-18.26,28.28-18.26S62.72,21.4,62.72,31.48,50.06,49.75,34.43,49.75Z"/><path class="cls-1" d="M20.9,27.28a4.15,4.15,0,1,0,4.17,4.15A4.16,4.16,0,0,0,20.9,27.28Z"/><path class="cls-1" d="M34.32,27.28a4.15,4.15,0,1,0,4.17,4.15A4.16,4.16,0,0,0,34.32,27.28Z"/><path class="cls-1" d="M47.74,27.28a4.15,4.15,0,1,0,4.17,4.15A4.16,4.16,0,0,0,47.74,27.28Z"/></g></g></svg>